<?xml version="1.0" encoding="UTF-8" standalone="no"?><!DOCTYPE svg PUBLIC "-//W3C//DTD SVG 1.1//EN" "http://www.w3.org/Graphics/SVG/1.1/DTD/svg11.dtd"><svg width="100%" height="100%" viewBox="0 0 1024 1024" version="1.1" xmlns="http://www.w3.org/2000/svg" xmlns:xlink="http://www.w3.org/1999/xlink" xml:space="preserve" xmlns:serif="http://www.serif.com/" style="fill-rule:evenodd;clip-rule:evenodd;stroke-linejoin:round;stroke-miterlimit:2;"><path d="M771.413,705.749c-15.189,4.48 -27.306,6.016 -43.178,6.016c-129.963,0 -321.067,-454.442 -321.067,-605.696c0,-55.722 13.269,-74.282 31.872,-90.197c-159.147,18.56 -350.208,76.928 -411.221,151.211c-13.27,18.56 -21.248,47.786 -21.248,84.906c0,236.16 252.074,772.011 429.866,772.011c82.262,0 220.971,-135.253 335.062,-318.293l-0.086,0.042Z"/><path d="M688.384,0c164.565,0 329.003,26.539 329.003,119.381c0,188.374 -119.339,416.555 -180.395,416.555c-108.8,0 -244.096,-302.464 -244.096,-453.717c0.043,-68.907 26.581,-82.219 95.488,-82.219Z" style="fill:#595959;"/></svg>